<svg width="24" height="24" viewBox="0 0 24 24" xmlns="http://www.w3.org/2000/svg">
  <defs>
    <linearGradient id="linkGradient" x1="0%" y1="0%" x2="100%" y2="100%">
      <stop offset="0%" stop-color="#4facfe" />
      <stop offset="100%" stop-color="#00f2fe" />
    </linearGradient>
  </defs>
  
  <!-- 左链环 -->
  <path d="M10 13a5 5 0 0 0 7.54.54l3-3a5 5 0 0 0-7.07-7.07l-1.72 1.71" 
        fill="none" 
        stroke="url(#linkGradient)" 
        stroke-width="1.5" 
        stroke-linecap="round" 
        stroke-linejoin="round" />
  
  <!-- 右链环 -->
  <path d="M14 11a5 5 0 0 0-7.54-.54l-3 3a5 5 0 0 0 7.07 7.07l1.71-1.71" 
        fill="none" 
        stroke="url(#linkGradient)" 
        stroke-width="1.5" 
        stroke-linecap="round" 
        stroke-linejoin="round" />
  
  <!-- 科技感装饰 - 连接点 -->
  <circle cx="8" cy="16" r="0.6" fill="url(#linkGradient)" />
  <circle cx="16" cy="8" r="0.6" fill="url(#linkGradient)" />
  
  <!-- 数据流线 -->
  <line x1="12" y1="12" x2="14" y2="10" 
        stroke="url(#linkGradient)" 
        stroke-width="0.5" 
        stroke-linecap="round" 
        stroke-dasharray="1,1" />
  
  <line x1="12" y1="12" x2="10" y2="14" 
        stroke="url(#linkGradient)" 
        stroke-width="0.5" 
        stroke-linecap="round" 
        stroke-dasharray="1,1" />
</svg> 